<svg xmlns="http://www.w3.org/2000/svg" version="1.1" xmlns:xlink="http://www.w3.org/1999/xlink" width="1000" height="1000"><g clip-path="url(#SvgjsClipPath1021)"><rect width="1000" height="1000" fill="#9336ea"></rect><g transform="matrix(0.4166666666666667,0,0,0.4166666666666667,100,100)"><svg xmlns="http://www.w3.org/2000/svg" viewBox="0 0 1920 1920" width="1920" height="1920"><g fill="none" stroke="#faf7fe" stroke-width="145" stroke-linecap="round" stroke-linejoin="round">
    <path d="M1641.8 881.9c26.2-11.6 43.2-37.6 43.2-66.3 0-29.2-17.6-55.6-44.6-66.9L1019.5 466c-38.2-17.4-82.1-17.4-120.3 0l-620.9 282.5c-26.3 11.5-43.4 37.6-43.4 66.4s17.1 54.8 43.4 66.4l620.9 283.1c38.2 17.4 82.1 17.4 120.3 0l622.3-282.5z"></path>
    <path d="M1683.8 815.1v434.7M524.7 996.2v253.6c0 119.2 196.2 217.3 434.7 217.3s434.7-98.1 434.7-217.3v-253.6"></path>
  </g></svg></g></g><defs><clipPath id="SvgjsClipPath1021"><rect width="1000" height="1000" x="0" y="0" rx="350" ry="350"></rect></clipPath></defs></svg>